<?xml version="1.0" encoding="UTF-8" standalone="no"?>
<svg
   xmlns:dc="http://purl.org/dc/elements/1.1/"
   xmlns:cc="http://creativecommons.org/ns#"
   xmlns:rdf="http://www.w3.org/1999/02/22-rdf-syntax-ns#"
   xmlns:svg="http://www.w3.org/2000/svg"
   xmlns="http://www.w3.org/2000/svg"
   xmlns:sodipodi="http://sodipodi.sourceforge.net/DTD/sodipodi-0.dtd"
   xmlns:inkscape="http://www.inkscape.org/namespaces/inkscape"
   version="1.1"
   id="svg10"
   width="2425.3333"
   height="1170.6667"
   viewBox="0 0 2425.3333 1170.6667"
   sodipodi:docname="LogoFinal - Kopie.svg"
   inkscape:version="1.0.1 (3bc2e813f5, 2020-09-07)">
  <metadata
     id="metadata16">
    <rdf:RDF>
      <cc:Work
         rdf:about="">
        <dc:format>image/svg+xml</dc:format>
        <dc:type
           rdf:resource="http://purl.org/dc/dcmitype/StillImage" />
        <dc:title />
      </cc:Work>
    </rdf:RDF>
  </metadata>
  <defs
     id="defs14">
    <inkscape:perspective
       sodipodi:type="inkscape:persp3d"
       inkscape:vp_x="924.87478 : 273.2722 : 1"
       inkscape:vp_y="-13.499286 : 698.72312 : 0"
       inkscape:vp_z="3158.3038 : 221.98033 : 1"
       inkscape:persp3d-origin="2044.223 : 111.29763 : 1"
       id="perspective1249" />
  </defs>
  <sodipodi:namedview
     pagecolor="#ffffff"
     bordercolor="#666666"
     borderopacity="1"
     objecttolerance="10"
     gridtolerance="10"
     guidetolerance="10"
     inkscape:pageopacity="0"
     inkscape:pageshadow="2"
     inkscape:window-width="1920"
     inkscape:window-height="1017"
     id="namedview12"
     showgrid="false"
     inkscape:zoom="0.25009323"
     inkscape:cx="813.29728"
     inkscape:cy="517.54009"
     inkscape:window-x="-8"
     inkscape:window-y="-8"
     inkscape:window-maximized="1"
     inkscape:current-layer="g18"
     inkscape:document-rotation="0" />
  <g
     inkscape:groupmode="layer"
     inkscape:label="Image"
     id="g18">
    <rect
       style="fill:#782121;fill-opacity:0"
       id="rect24"
       width="944.89764"
       height="1505.4302"
       x="492.46783"
       y="284.27005" />
    <rect
       style="fill:#782121;fill-opacity:0"
       id="rect26"
       width="220.20918"
       height="180.17114"
       x="1217.1562"
       y="1609.5291" />
    <rect
       style="fill:#782121;fill-opacity:0"
       id="rect28"
       width="1249.1868"
       height="692.65802"
       x="744.70746"
       y="1377.3085" />
    <rect
       style="fill:#782121;fill-opacity:0"
       id="rect30"
       width="284.27005"
       height="856.81396"
       x="-944.89764"
       y="-748.7113" />
    <ellipse
       style="fill:#782121;fill-opacity:0"
       id="path32"
       cx="-680.64661"
       cy="328.31189"
       rx="248.23582"
       ry="412.39178" />
    <ellipse
       style="fill:#782121;fill-opacity:0"
       id="path34"
       cx="-944.89764"
       cy="452.42981"
       rx="512.48688"
       ry="288.27386" />
    <path
       sodipodi:type="star"
       style="fill:#782121;fill-opacity:0"
       id="path36"
       sodipodi:sides="5"
       sodipodi:cx="-1305.24"
       sodipodi:cy="-260.24722"
       sodipodi:r1="1489.1243"
       sodipodi:r2="744.56213"
       sodipodi:arg1="1.9078518"
       sodipodi:arg2="2.5361703"
       inkscape:flatsided="false"
       inkscape:rounded="0"
       inkscape:randomized="0"
       d="m -1797.7078,1145.0878 -119.7572,-981.5977 -876.5089,-457.82964 896.5478,-417.22623 164.5657,-975.08673 673.8543,723.73776 978.216145,-144.80706 -480.083055,864.52071 440.00513,885.591 -970.56192,-189.43452 z"
       inkscape:transform-center-x="132.14196"
       inkscape:transform-center-y="-10.535111" />
    <path
       sodipodi:type="star"
       style="fill:#782121;fill-opacity:0"
       id="path38"
       sodipodi:sides="5"
       sodipodi:cx="-544.51727"
       sodipodi:cy="896.85199"
       sodipodi:r1="406.46002"
       sodipodi:r2="203.23001"
       sodipodi:arg1="-1.111554"
       sodipodi:arg2="-0.48323544"
       inkscape:flatsided="false"
       inkscape:rounded="0"
       inkscape:randomized="0"
       d="m -364.34612,532.50586 -0.21175,269.916 222.23031,153.19393 -256.77081,83.20721 -77.02314,258.6932 -158.48135,-218.4911 -269.83322,6.6872 158.82395,-218.24222 -89.74296,-254.56019 256.63994,83.61002 z"
       inkscape:transform-center-x="-21.135449"
       inkscape:transform-center-y="18.159017" />
    <path
       style="fill:#550000;fill-opacity:0;stroke-width:1.41556"
       d="m -789.3885,654.5592 v -959.04077 h 1522.433 1522.433 V 654.5592 1613.6 H 733.0445 -789.3885 Z m 2766.276,369.5443 c 114.3648,-16.8906 139.1858,-20.1777 143.4581,-18.9981 2.8413,0.7845 5.3423,1.2207 5.5578,0.9694 0.2154,-0.2514 -2.0499,-41.54371 -5.034,-91.76064 -2.9842,-50.21693 -5.4497,-92.28402 -5.479,-93.48241 -0.037,-1.51502 4.663,-3.8217 15.4258,-7.57066 l 15.4789,-5.39175 2.5539,-7.10228 c 1.4047,-3.90625 4.1088,-8.32531 6.0092,-9.82014 3.3618,-2.64441 3.4047,-2.91745 1.5832,-10.09935 -2.1736,-8.56981 -3.14,-9.4539 -10.3656,-9.48313 -4.8596,-0.0197 -5.2216,-0.2769 -3.8901,-2.76462 1.3131,-2.45368 -6.9014,-9.57979 -77.893,-67.57259 l -79.3608,-64.82964 0.7937,-6.39034 c 0.7134,-5.74491 0.3291,-6.9204 -3.8059,-11.63864 l -4.5994,-5.24832 -4.6684,3.85159 c -4.5904,3.78731 -4.6345,3.93399 -2.6468,8.78722 4.8058,11.73322 5.9854,10.76044 -14.2465,11.74881 -9.9407,0.48563 -91.2429,5.04359 -180.6716,10.1288 -89.4288,5.08521 -165.2144,9.24583 -168.4126,9.24583 h -5.8148 l 3.5,-2.36173 c 1.925,-1.29895 3.6524,-2.45993 3.8386,-2.57997 0.714,-0.46007 -4.3567,-12.045 -5.272,-12.045 -0.5307,0 -3.4049,2.10914 -6.387,4.68697 -5.1242,4.42954 -5.3361,4.93358 -3.8568,9.1768 l 1.5651,4.48982 -81.3125,59.75894 c -44.7218,32.86741 -81.3125,60.14705 -81.3125,60.62142 0,0.47435 11.6253,5.86914 25.834,11.98843 14.2086,6.11928 25.9728,11.21111 26.1425,11.31518 0.1697,0.10405 1.6122,43.69483 3.2054,96.86837 l 2.8968,96.67915 -8.6578,16.23078 c -4.7618,8.927 -8.4337,16.4386 -8.1599,16.6925 0.2739,0.2538 74.0717,3.7307 163.995,7.7263 89.9233,3.9957 165.7265,7.4615 168.4514,7.702 23.4224,2.0666 31.7744,1.1158 171.5576,-19.529 z"
       id="path1099" />
    <path
       style="fill:#550000;fill-opacity:0;stroke-width:1.41556"
       d="m -789.3885,654.5592 v -959.04077 h 1522.433 1522.433 V 654.5592 1613.6 H 733.0445 -789.3885 Z m 2766.276,369.5443 c 114.3648,-16.8906 139.1858,-20.1777 143.4581,-18.9981 2.8413,0.7845 5.3423,1.2207 5.5578,0.9694 0.2154,-0.2514 -2.0499,-41.54371 -5.034,-91.76064 -2.9842,-50.21693 -5.4497,-92.28402 -5.479,-93.48241 -0.037,-1.51502 4.663,-3.8217 15.4258,-7.57066 l 15.4789,-5.39175 2.5539,-7.10228 c 1.4047,-3.90625 4.1088,-8.32531 6.0092,-9.82014 3.3618,-2.64441 3.4047,-2.91745 1.5832,-10.09935 -2.1736,-8.56981 -3.14,-9.4539 -10.3656,-9.48313 -4.8596,-0.0197 -5.2216,-0.2769 -3.8901,-2.76462 1.3131,-2.45368 -6.9014,-9.57979 -77.893,-67.57259 l -79.3608,-64.82964 0.7937,-6.39034 c 0.7134,-5.74491 0.3291,-6.9204 -3.8059,-11.63864 l -4.5994,-5.24832 -4.6684,3.85159 c -4.5904,3.78731 -4.6345,3.93399 -2.6468,8.78722 4.8058,11.73322 5.9854,10.76044 -14.2465,11.74881 -9.9407,0.48563 -91.2429,5.04359 -180.6716,10.1288 -89.4288,5.08521 -165.2144,9.24583 -168.4126,9.24583 h -5.8148 l 3.5,-2.36173 c 1.925,-1.29895 3.6524,-2.45993 3.8386,-2.57997 0.714,-0.46007 -4.3567,-12.045 -5.272,-12.045 -0.5307,0 -3.4049,2.10914 -6.387,4.68697 -5.1242,4.42954 -5.3361,4.93358 -3.8568,9.1768 l 1.5651,4.48982 -81.3125,59.75894 c -44.7218,32.86741 -81.3125,60.14705 -81.3125,60.62142 0,0.47435 11.6253,5.86914 25.834,11.98843 14.2086,6.11928 25.9728,11.21111 26.1425,11.31518 0.1697,0.10405 1.6122,43.69483 3.2054,96.86837 l 2.8968,96.67915 -8.6578,16.23078 c -4.7618,8.927 -8.4337,16.4386 -8.1599,16.6925 0.2739,0.2538 74.0717,3.7307 163.995,7.7263 89.9233,3.9957 165.7265,7.4615 168.4514,7.702 23.4224,2.0666 31.7744,1.1158 171.5576,-19.529 z"
       id="path1101" />
    <path
       style="fill:#550000;fill-opacity:0;stroke-width:1.41556"
       d="m -789.3885,654.5592 v -959.04077 h 1522.433 1522.433 V 654.5592 1613.6 H 733.0445 -789.3885 Z m 2766.276,369.5443 c 114.3648,-16.8906 139.1858,-20.1777 143.4581,-18.9981 2.8413,0.7845 5.3423,1.2207 5.5578,0.9694 0.2154,-0.2514 -2.0499,-41.54371 -5.034,-91.76064 -2.9842,-50.21693 -5.4497,-92.28402 -5.479,-93.48241 -0.037,-1.51502 4.663,-3.8217 15.4258,-7.57066 l 15.4789,-5.39175 2.5539,-7.10228 c 1.4047,-3.90625 4.1088,-8.32531 6.0092,-9.82014 3.3618,-2.64441 3.4047,-2.91745 1.5832,-10.09935 -2.1736,-8.56981 -3.14,-9.4539 -10.3656,-9.48313 -4.8596,-0.0197 -5.2216,-0.2769 -3.8901,-2.76462 1.3131,-2.45368 -6.9014,-9.57979 -77.893,-67.57259 l -79.3608,-64.82964 0.7937,-6.39034 c 0.7134,-5.74491 0.3291,-6.9204 -3.8059,-11.63864 l -4.5994,-5.24832 -4.6684,3.85159 c -4.5904,3.78731 -4.6345,3.93399 -2.6468,8.78722 4.8058,11.73322 5.9854,10.76044 -14.2465,11.74881 -9.9407,0.48563 -91.2429,5.04359 -180.6716,10.1288 -89.4288,5.08521 -165.2144,9.24583 -168.4126,9.24583 h -5.8148 l 3.5,-2.36173 c 1.925,-1.29895 3.6524,-2.45993 3.8386,-2.57997 0.714,-0.46007 -4.3567,-12.045 -5.272,-12.045 -0.5307,0 -3.4049,2.10914 -6.387,4.68697 -5.1242,4.42954 -5.3361,4.93358 -3.8568,9.1768 l 1.5651,4.48982 -81.3125,59.75894 c -44.7218,32.86741 -81.3125,60.14705 -81.3125,60.62142 0,0.47435 11.6253,5.86914 25.834,11.98843 14.2086,6.11928 25.9728,11.21111 26.1425,11.31518 0.1697,0.10405 1.6122,43.69483 3.2054,96.86837 l 2.8968,96.67915 -8.6578,16.23078 c -4.7618,8.927 -8.4337,16.4386 -8.1599,16.6925 0.2739,0.2538 74.0717,3.7307 163.995,7.7263 89.9233,3.9957 165.7265,7.4615 168.4514,7.702 23.4224,2.0666 31.7744,1.1158 171.5576,-19.529 z"
       id="path1103" />
    <path
       style="fill:#550000;fill-opacity:0;stroke-width:1.41556"
       d="m -789.3885,654.5592 v -959.04077 h 1522.433 1522.433 V 654.5592 1613.6 H 733.0445 -789.3885 Z m 2766.276,369.5443 c 114.3648,-16.8906 139.1858,-20.1777 143.4581,-18.9981 2.8413,0.7845 5.3423,1.2207 5.5578,0.9694 0.2154,-0.2514 -2.0499,-41.54371 -5.034,-91.76064 -2.9842,-50.21693 -5.4497,-92.28402 -5.479,-93.48241 -0.037,-1.51502 4.663,-3.8217 15.4258,-7.57066 l 15.4789,-5.39175 2.5539,-7.10228 c 1.4047,-3.90625 4.1088,-8.32531 6.0092,-9.82014 3.3618,-2.64441 3.4047,-2.91745 1.5832,-10.09935 -2.1736,-8.56981 -3.14,-9.4539 -10.3656,-9.48313 -4.8596,-0.0197 -5.2216,-0.2769 -3.8901,-2.76462 1.3131,-2.45368 -6.9014,-9.57979 -77.893,-67.57259 l -79.3608,-64.82964 0.7937,-6.39034 c 0.7134,-5.74491 0.3291,-6.9204 -3.8059,-11.63864 l -4.5994,-5.24832 -4.6684,3.85159 c -4.5904,3.78731 -4.6345,3.93399 -2.6468,8.78722 4.8058,11.73322 5.9854,10.76044 -14.2465,11.74881 -9.9407,0.48563 -91.2429,5.04359 -180.6716,10.1288 -89.4288,5.08521 -165.2144,9.24583 -168.4126,9.24583 h -5.8148 l 3.5,-2.36173 c 1.925,-1.29895 3.6524,-2.45993 3.8386,-2.57997 0.714,-0.46007 -4.3567,-12.045 -5.272,-12.045 -0.5307,0 -3.4049,2.10914 -6.387,4.68697 -5.1242,4.42954 -5.3361,4.93358 -3.8568,9.1768 l 1.5651,4.48982 -81.3125,59.75894 c -44.7218,32.86741 -81.3125,60.14705 -81.3125,60.62142 0,0.47435 11.6253,5.86914 25.834,11.98843 14.2086,6.11928 25.9728,11.21111 26.1425,11.31518 0.1697,0.10405 1.6122,43.69483 3.2054,96.86837 l 2.8968,96.67915 -8.6578,16.23078 c -4.7618,8.927 -8.4337,16.4386 -8.1599,16.6925 0.2739,0.2538 74.0717,3.7307 163.995,7.7263 89.9233,3.9957 165.7265,7.4615 168.4514,7.702 23.4224,2.0666 31.7744,1.1158 171.5576,-19.529 z"
       id="path1105" />
    <path
       style="fill:#550000;fill-opacity:0;stroke-width:1.41556"
       d="m -789.3885,654.5592 v -959.04077 h 1522.433 1522.433 V 654.5592 1613.6 H 733.0445 -789.3885 Z m 2766.276,369.5443 c 114.3648,-16.8906 139.1858,-20.1777 143.4581,-18.9981 2.8413,0.7845 5.3423,1.2207 5.5578,0.9694 0.2154,-0.2514 -2.0499,-41.54371 -5.034,-91.76064 -2.9842,-50.21693 -5.4497,-92.28402 -5.479,-93.48241 -0.037,-1.51502 4.663,-3.8217 15.4258,-7.57066 l 15.4789,-5.39175 2.5539,-7.10228 c 1.4047,-3.90625 4.1088,-8.32531 6.0092,-9.82014 3.3618,-2.64441 3.4047,-2.91745 1.5832,-10.09935 -2.1736,-8.56981 -3.14,-9.4539 -10.3656,-9.48313 -4.8596,-0.0197 -5.2216,-0.2769 -3.8901,-2.76462 1.3131,-2.45368 -6.9014,-9.57979 -77.893,-67.57259 l -79.3608,-64.82964 0.7937,-6.39034 c 0.7134,-5.74491 0.3291,-6.9204 -3.8059,-11.63864 l -4.5994,-5.24832 -4.6684,3.85159 c -4.5904,3.78731 -4.6345,3.93399 -2.6468,8.78722 4.8058,11.73322 5.9854,10.76044 -14.2465,11.74881 -9.9407,0.48563 -91.2429,5.04359 -180.6716,10.1288 -89.4288,5.08521 -165.2144,9.24583 -168.4126,9.24583 h -5.8148 l 3.5,-2.36173 c 1.925,-1.29895 3.6524,-2.45993 3.8386,-2.57997 0.714,-0.46007 -4.3567,-12.045 -5.272,-12.045 -0.5307,0 -3.4049,2.10914 -6.387,4.68697 -5.1242,4.42954 -5.3361,4.93358 -3.8568,9.1768 l 1.5651,4.48982 -81.3125,59.75894 c -44.7218,32.86741 -81.3125,60.14705 -81.3125,60.62142 0,0.47435 11.6253,5.86914 25.834,11.98843 14.2086,6.11928 25.9728,11.21111 26.1425,11.31518 0.1697,0.10405 1.6122,43.69483 3.2054,96.86837 l 2.8968,96.67915 -8.6578,16.23078 c -4.7618,8.927 -8.4337,16.4386 -8.1599,16.6925 0.2739,0.2538 74.0717,3.7307 163.995,7.7263 89.9233,3.9957 165.7265,7.4615 168.4514,7.702 23.4224,2.0666 31.7744,1.1158 171.5576,-19.529 z"
       id="path1107" />
    <path
       style="fill:none;stroke:#000000;stroke-width:2.70063px;stroke-linecap:butt;stroke-linejoin:miter;stroke-opacity:1"
       d="M 586.45157,83.464379 146.64117,406.36975 c 0,0 1057.45713,-38.21364 1057.45713,-38.21364 0,0 430.2494,-343.922897 430.2494,-343.922897 z"
       id="path1469" />
    <path
       style="fill:none;stroke:#000000;stroke-width:2.70063px;stroke-linecap:butt;stroke-linejoin:miter;stroke-opacity:1"
       d="m 1634.3477,24.233213 -430.2494,343.922897 858.5865,5.73205 z"
       id="path1471" />
    <path
       style="fill:none;stroke:#000000;stroke-width:2.70063px;stroke-linecap:butt;stroke-linejoin:miter;stroke-opacity:1"
       d="m 287.03161,467.51186 914.46619,-26.24197 22.7358,681.60871 -967.55681,-43.9458 45.53207,-84.07028 z"
       id="path1530" />
    <path
       style="fill:none;stroke:#000000;stroke-width:2.70063px;stroke-linecap:butt;stroke-linejoin:miter;stroke-opacity:1"
       d="m 146.64117,406.36975 140.39044,61.14211"
       id="path1532" />
    <path
       style="fill:none;stroke:#000000;stroke-width:2.70063px;stroke-linecap:butt;stroke-linejoin:miter;stroke-opacity:1"
       d="m 1204.0983,368.15611 -2.6005,73.11378"
       id="path1534" />
    <path
       style="fill:none;stroke:#000000;stroke-width:2.69585px;stroke-linecap:butt;stroke-linejoin:miter;stroke-opacity:1"
       d="M 302.20022,994.87286 481.4585,992.42649 462.32402,463.66213"
       id="path1557" />
    <path
       style="fill:none;stroke:#000000;stroke-width:2.7141px;stroke-linecap:butt;stroke-linejoin:miter;stroke-opacity:1"
       d="m 331.17267,464.74294 20.28218,529.45575"
       id="path1559" />
    <path
       style="opacity:1;fill:#e6e6e6;fill-opacity:1;stroke:none;stroke-width:2.70319;stroke-opacity:1"
       d="m 304.73764,976.6607 c -0.83974,-9.49474 -3.99372,-111.4993 -7.0089,-226.67692 -3.01517,-115.17756 -6.24365,-225.58143 -7.17439,-245.3419 l -1.69225,-35.92806 19.93895,0.8006 19.93895,0.80064 9.90263,259.40286 c 5.44647,142.67153 9.60607,259.7051 9.24359,260.0744 -0.36249,0.3694 -9.87569,1.45013 -21.14045,2.40156 l -20.48136,1.72999 z"
       id="path1599" />
    <path
       style="opacity:1;fill:#784421;fill-opacity:1;stroke:none;stroke-width:2.70319;stroke-opacity:1"
       d="m 159.89889,400.68444 c 2.32829,-1.82955 99.42928,-73.24363 215.78001,-158.69798 L 587.22566,86.614978 617.5357,84.577045 c 82.91474,-5.574785 993.8489,-56.177011 999.0194,-55.495327 4.5423,0.598849 -44.6363,41.212914 -204.1738,168.616272 l -210.1566,167.82744 -45.9731,1.74841 c -25.285,0.96164 -248.5915,8.97204 -496.23654,17.80089 -247.64502,8.82886 -462.43297,16.7013 -477.30654,17.49428 -21.70989,1.15751 -26.20805,0.78586 -22.80963,-1.88457 z"
       id="path1601" />
    <path
       style="opacity:1;fill:#cccccc;fill-opacity:1;stroke:none;stroke-width:2.70319;stroke-opacity:1"
       d="m 307.44746,990.89106 c -1.38275,-2.41776 -3.83279,-72.59918 -8.45716,-242.25833 -5.90565,-216.6681 -6.79297,-244.48429 -8.373,-262.48409 l -1.45641,-16.59174 18.43741,1.41214 c 10.14057,0.77669 18.75878,1.67373 19.15154,1.99338 0.66023,0.53731 9.70382,228.48035 16.97898,427.95413 1.69968,46.60205 2.06482,85.66551 0.81144,86.8077 -2.95003,2.68817 -35.76424,5.4898 -37.0928,3.16681 z"
       id="path1605" />
    <path
       style="opacity:1;fill:#f2f2f2;fill-opacity:1;stroke:none;stroke-width:2.70319;stroke-opacity:1"
       d="m 307.29308,968.17939 c -0.90766,-12.26083 -4.02317,-109.23292 -6.92338,-215.49351 -5.8058,-212.71882 -7.81962,-269.19319 -9.85221,-276.2911 -1.14141,-3.98586 0.47992,-4.72289 10.32132,-4.69177 18.87824,0.0597 23.54977,2.24845 25.0668,11.74481 1.82829,11.44512 17.79245,438.70972 17.74529,474.93646 l -0.0372,28.70998 -8.45091,1.68877 c -4.64798,0.92884 -12.44879,1.68887 -17.33509,1.68887 h -8.88421 z"
       id="path1613" />
    <path
       style="opacity:1;fill:#f2f2f2;fill-opacity:1;stroke:none;stroke-width:2.70319;stroke-opacity:1"
       d="m 1640.3189,368.62259 c -156.1726,-1.19533 -316.1255,-2.51456 -355.4509,-2.93159 l -71.5009,-0.75837 210.465,-168.2309 C 1560.9292,87.116249 1635.347,29.292318 1637.3084,30.827333 c 16.4106,12.844632 407.2898,331.955087 411.2827,335.767727 5.2311,4.99508 4.0894,5.08426 -59.4943,4.64685 -35.6555,-0.24541 -192.6054,-1.42402 -348.7779,-2.61932 z"
       id="path1615" />
    <path
       style="fill:none;stroke:#000000;stroke-width:2.70063px;stroke-linecap:butt;stroke-linejoin:miter;stroke-opacity:1"
       d="M 351.45485,994.19869 477.20414,829.3698"
       id="path1617" />
    <path
       style="fill:none;stroke:#000000;stroke-width:2.70063px;stroke-linecap:butt;stroke-linejoin:miter;stroke-opacity:1"
       d="M 349.44719,924.05672 475.19646,759.22777"
       id="path1617-2" />
    <path
       style="fill:none;stroke:#000000;stroke-width:2.70063px;stroke-linecap:butt;stroke-linejoin:miter;stroke-opacity:1"
       d="M 481.4585,995.58574 343.78118,830.75679"
       id="path1617-3" />
    <path
       style="fill:none;stroke:#000000;stroke-width:2.71379px;stroke-linecap:butt;stroke-linejoin:miter;stroke-opacity:1"
       d="M 480.79798,929.38959 342.79157,764.56994"
       id="path1617-2-0" />
    <path
       style="fill:none;stroke:#000000;stroke-width:2.70063px;stroke-linecap:butt;stroke-linejoin:miter;stroke-opacity:1"
       d="m 342.79157,764.56994 132.40489,-5.34217"
       id="path1666" />
    <path
       style="opacity:1;fill:#28170b;fill-opacity:1;stroke:none;stroke-width:1.3516;stroke-opacity:1"
       d="m 221.44667,436.76172 -65.57895,-28.73023 28.39498,-1.02396 c 15.61726,-0.56317 247.14551,-8.92283 514.5072,-18.57701 267.36182,-9.65418 489.9623,-17.55306 494.6678,-17.55306 h 8.5554 l -0.8457,28.70995 c -0.4653,15.79044 -1.1515,31.19897 -1.5248,34.24109 l -0.6788,5.53114 -30.7101,0.89766 c -16.8907,0.49372 -210.81549,6.03655 -430.94439,12.31738 -220.12892,6.28087 -411.491,11.75667 -425.24907,12.1685 l -25.01464,0.74878 z"
       id="path1668" />
    <path
       style="fill:none;stroke:#000000;stroke-width:2.73007px;stroke-linecap:butt;stroke-linejoin:miter;stroke-opacity:1"
       d="M 1296.612,367.21878 1633.2785,95.764207 1971.3134,375.40335"
       id="path1670" />
    <path
       style="opacity:1;fill:#999999;fill-opacity:1;stroke:none;stroke-width:1.3516;stroke-opacity:1"
       d="M 1802.0177,232.46756 C 1709.918,156.2669 1633.767,94.106585 1632.7926,94.333483 c -0.9739,0.226754 -77.1274,61.210077 -169.2295,135.518197 l -167.4587,135.10567 -10.1411,-0.0189 c -5.5775,-0.0108 -23.7783,-0.16217 -40.4462,-0.33777 l -30.3051,-0.3191 139.8287,-111.63823 c 185.3267,-147.96354 274.4735,-217.940947 280.6692,-220.31656 1.7327,-0.664314 3.3422,0.630052 181.6457,146.07923 235.2291,191.88566 233.5668,190.49641 229.0987,191.4577 -2.1817,0.46936 -20.3953,0.92024 -40.4747,1.00183 l -36.5078,0.14838 z"
       id="path1672" />
    <rect
       style="opacity:1;fill:#552200;fill-opacity:1;stroke:none;stroke-width:3.08442;stroke-opacity:1"
       id="rect1698"
       width="222.65884"
       height="509.42877"
       x="1492.1117"
       y="504.7713"
       transform="matrix(0.99947248,-0.03247723,0.03838792,0.99926291,0,0)" />
    <path
       style="fill:none;stroke:#000000;stroke-width:2.70063px;stroke-linecap:butt;stroke-linejoin:miter;stroke-opacity:1"
       d="m 481.4585,992.42649 737.3322,11.66561"
       id="path1700" />
    <path
       style="fill:none;stroke:#000000;stroke-width:2.74573px;stroke-linecap:butt;stroke-linejoin:miter;stroke-opacity:1"
       d="m 1180.4316,439.24662 c 283.9069,0 795.7383,3.76791 795.7383,3.76791 l 63.9793,640.54547 -819.7308,33.9113"
       id="path1750" />
    <path
       style="fill:none;stroke:#000000;stroke-width:2.70063px;stroke-linecap:butt;stroke-linejoin:miter;stroke-opacity:1"
       d="m 1976.1699,443.01453 86.5149,-69.12637"
       id="path1752" />
    <path
       style="opacity:0.59;fill:#999999;fill-opacity:1;stroke:none;stroke-width:1.90893;stroke-opacity:1"
       d="m 1522.6519,438.3757 c -174.8797,-0.96819 -318.1454,-1.92766 -318.368,-2.13222 -0.2226,-0.20461 0.1282,-15.21595 0.7811,-33.3586 l 1.1862,-32.98662 139.5811,1.22825 c 237.5536,2.09037 620.5148,4.82193 666.4911,4.75393 l 43.7588,-0.0648 -40.6536,32.49961 -40.6536,32.49962 -67.0797,-0.33946 c -36.8937,-0.18675 -210.1633,-1.13162 -385.0434,-2.09978 z"
       id="path1760" />
    <path
       style="opacity:0.59;fill:#999999;fill-opacity:1;stroke:none;stroke-width:1.90893;stroke-opacity:1"
       d="m 1664.9242,438.63585 c -163.8515,-0.84505 -334.2198,-2.08955 -378.5962,-2.76551 l -80.6844,-1.22906 0.016,-22.19624 c 0.014,-12.20793 0.5534,-26.66087 1.2093,-32.11766 l 1.1929,-9.92146 71.8363,0.91112 c 139.7606,1.77261 550.7872,4.67724 661.807,4.67686 61.9017,-2.2e-4 111.7445,0.71977 110.762,1.60004 -0.9822,0.88023 -19.1607,15.46508 -40.3969,32.41072 -30.7164,24.51094 -39.6967,30.74461 -43.9227,30.48898 -2.9217,-0.17676 -139.3724,-1.01275 -303.224,-1.85779 z"
       id="path1762" />
    <path
       style="fill:none;stroke:#000000;stroke-width:2.70063px;stroke-linecap:butt;stroke-linejoin:miter;stroke-opacity:1"
       d="m 1218.7907,1004.0921 808.7129,-36.19383"
       id="path1764" />
    <path
       style="fill:none;stroke:#000000;stroke-width:2.70063px;stroke-linecap:butt;stroke-linejoin:miter;stroke-opacity:1"
       d="m 2062.6848,373.88816 3.0126,33.01223 -64.9295,45.79577 45.8325,440.78399 -24.826,34.34682"
       id="path1778" />
    <path
       style="fill:none;stroke:#000000;stroke-width:2.70063px;stroke-linecap:butt;stroke-linejoin:miter;stroke-opacity:1"
       d="m 2027.5036,967.89827 63.0196,-76.32629 -53.4712,-423.61059 80.207,-49.61204 -9.5485,-47.7039 17.1873,-11.44897 -17.1873,-17.17337 -45.8328,3.81631 -5.7955,29.97621"
       id="path1780" />
    <path
       style="opacity:0.59;fill:#f2f2f2;fill-opacity:1;stroke:none;stroke-width:1.90893;stroke-opacity:1"
       d="m 2029.241,949.10291 c -0.6613,-6.1674 -1.6062,-13.84945 -2.0991,-17.07141 -0.7417,-4.84478 1.0942,-8.64033 10.6126,-21.94381 10.5462,-14.74014 11.4229,-16.72418 10.4804,-23.71832 -3.7049,-27.49354 -44.6454,-431.00359 -43.8591,-432.27495 0.5377,-0.86919 15.2075,-11.61299 32.6003,-23.87508 l 31.6225,-22.29482 -1.106,-8.83785 c -0.6082,-4.86083 -1.2722,-12.70187 -1.475,-17.42455 -0.2078,-4.8084 -1.565,-9.48764 -3.0872,-10.63417 -2.0726,-1.56145 -2.3954,-4.39171 -1.3586,-11.92383 0.7477,-5.43204 1.9419,-10.23611 2.6537,-10.67579 0.7122,-0.43966 10.5638,-1.41977 21.8926,-2.17805 l 20.5983,-1.37866 6.5739,6.36653 c 3.6155,3.5016 6.5739,6.85411 6.5739,7.44996 0,0.59585 -3.4076,3.18764 -7.5725,5.75954 -5.7331,3.54056 -7.3526,5.61942 -6.6682,8.56013 1.8933,8.13724 8.5115,41.58144 8.5115,43.01305 0,0.82499 -18.0088,12.5372 -40.0199,26.02708 -27.5813,16.90376 -39.8015,25.41678 -39.3174,27.38937 0.3864,1.57425 12.5325,96.99183 26.9907,212.03913 l 26.2883,209.17685 -26.424,32.20484 c -14.5333,17.71266 -27.5006,33.38685 -28.8166,34.83149 -1.9526,2.14392 -2.6131,0.5661 -3.5951,-8.58668 z"
       id="path1782" />
    <path
       style="opacity:0.59;fill:#f2f2f2;fill-opacity:1;stroke:none;stroke-width:1.90893;stroke-opacity:1"
       d="m 2029.4328,944.35423 c -0.6787,-6.48712 -1.2339,-13.21387 -1.2339,-14.94818 0,-1.73439 4.7265,-10.2905 10.5034,-19.01362 5.7767,-8.72313 10.5035,-17.74478 10.5035,-20.04814 0,-2.30327 -2.1659,-23.74245 -4.8124,-47.64248 -9.5012,-85.79471 -39.2096,-385.51969 -38.4171,-387.58337 0.4452,-1.15922 14.9227,-12.15396 32.1721,-24.43277 l 31.3629,-22.32512 -2.6097,-18.59663 c -4.1115,-29.29915 -4.5637,-35.59391 -2.7515,-38.30192 1.0844,-1.6199 8.8437,-3.15317 21.543,-4.25687 l 19.8483,-1.72502 6.6841,6.73568 c 5.6964,5.74068 6.2351,6.99254 3.6476,8.47421 -1.6703,0.95618 -4.9865,3.31629 -7.37,5.24468 l -4.3334,3.5062 4.0276,19.73339 c 2.2155,10.85336 4.0282,21.56749 4.0282,23.80915 0,3.21321 -7.3423,8.68594 -34.6945,25.861 -19.0821,11.98192 -36.7386,23.55231 -39.2369,25.71203 l -4.5425,3.92676 13.3959,104.94856 c 7.3675,57.72171 18.9985,150.02877 25.8463,205.12676 6.8479,55.09795 12.8758,102.75421 13.3962,105.90267 0.8418,5.09442 -1.9896,9.29336 -25.7274,38.15291 -14.6704,17.8357 -27.4211,32.67743 -28.3347,32.98185 -0.9135,0.30434 -2.2167,-4.75443 -2.8951,-11.24173 z"
       id="path1784" />
    <path
       style="fill:none;stroke:#000000;stroke-width:2.70063px;stroke-linecap:butt;stroke-linejoin:miter;stroke-opacity:1"
       d="m 2062.6848,373.88816 45.0257,-3.24271"
       id="path1786" />
    <path
       style="opacity:0.59;fill:#f2f2f2;fill-opacity:1;stroke:none;stroke-width:1.90893;stroke-opacity:1"
       d="m 2064.4831,361.71066 c 0,-12.14887 -0.051,-12.1189 23.244,-13.77106 16.7897,-1.1908 17.0674,-1.1392 22.6579,4.21244 3.1129,2.97991 5.6538,5.90141 5.6468,6.49217 0,0.59077 -2.8823,3.02603 -6.3894,5.41178 -4.536,3.0856 -10.182,4.62225 -19.5613,5.32365 -7.2518,0.54234 -15.978,1.32705 -19.3913,1.74389 l -6.2067,0.75786 z"
       id="path1788" />
    <path
       style="opacity:0.59;fill:#f2f2f2;fill-opacity:1;stroke:none;stroke-width:1.90893;stroke-opacity:1"
       d="m 2064.4831,363.26642 c 0,-9.97243 3.75,-14.02812 13.0268,-14.08929 3.8638,-0.0243 11.3935,-0.53662 16.7329,-1.13594 8.4239,-0.94559 10.4234,-0.47455 15.1199,3.56192 10.6777,9.17726 1.5647,15.20285 -27.215,17.99526 l -17.6646,1.71392 z"
       id="path1790" />
    <path
       style="opacity:0.59;fill:#000000;fill-opacity:1;stroke:none;stroke-width:0.337453;stroke-opacity:1"
       d="m 2064.7047,364.81068 c 0,-8.10294 0.4096,-9.70039 3.1938,-12.4607 2.6191,-2.59659 4.2382,-2.99974 13.6298,-3.39379 2.6617,-0.11172 5.1684,-0.25568 5.5703,-0.32008 0.402,-0.0643 1.9463,-0.21241 3.4316,-0.32908 2.5916,-0.20352 3.8539,-0.3124 7.9335,-0.68463 1.5326,-0.13974 4.3704,0.15676 5.9078,0.61761 2.3592,0.70718 7.4728,5.1392 8.5902,7.44523 1.0744,2.21805 0.9269,3.86057 -0.4966,5.52226 -3.5862,4.18587 -14.5634,7.08353 -32.9064,8.68613 -1.3925,0.12157 -3.0639,0.28448 -3.7135,0.36183 -0.6498,0.0777 -2.0172,0.21785 -3.0385,0.31205 -4.5088,0.41622 -5.646,0.53462 -6.8361,0.71175 l -1.2659,0.18838 z"
       id="path1872" />
    <path
       style="fill:none;stroke:#000000;stroke-width:2.69926px;stroke-linecap:butt;stroke-linejoin:miter;stroke-opacity:1"
       d="m 1512.4425,482.93709 222.353,-7.23004"
       id="path1874" />
    <path
       style="fill:none;stroke:#000000;stroke-width:2.67939px;stroke-linecap:butt;stroke-linejoin:miter;stroke-opacity:1"
       d="m 1515.6826,511.64923 219.0082,-7.23279"
       id="path1874-3" />
    <path
       style="fill:none;stroke:#000000;stroke-width:2.68793px;stroke-linecap:butt;stroke-linejoin:miter;stroke-opacity:1"
       d="m 1515.0511,537.94131 220.4416,-7.23159"
       id="path1874-3-2" />
    <path
       style="fill:none;stroke:#000000;stroke-width:2.70209px;stroke-linecap:butt;stroke-linejoin:miter;stroke-opacity:1"
       d="m 1514.8195,561.07649 222.8309,-7.22965"
       id="path1874-0" />
    <path
       style="fill:none;stroke:#000000;stroke-width:2.68508px;stroke-linecap:butt;stroke-linejoin:miter;stroke-opacity:1"
       d="m 1518.0591,589.78846 219.9644,-7.23198"
       id="path1874-3-8" />
    <path
       style="fill:none;stroke:#000000;stroke-width:2.70209px;stroke-linecap:butt;stroke-linejoin:miter;stroke-opacity:1"
       d="m 1517.4271,616.07995 222.8311,-7.22966"
       id="path1874-3-2-3" />
    <path
       style="fill:none;stroke:#000000;stroke-width:2.70209px;stroke-linecap:butt;stroke-linejoin:miter;stroke-opacity:1"
       d="m 1518.2403,639.38111 222.8307,-7.22967"
       id="path1874-39" />
    <path
       style="fill:none;stroke:#000000;stroke-width:2.69078px;stroke-linecap:butt;stroke-linejoin:miter;stroke-opacity:1"
       d="m 1521.4799,668.0927 220.9194,-7.23123"
       id="path1874-3-87" />
    <path
       style="fill:none;stroke:#000000;stroke-width:2.70209px;stroke-linecap:butt;stroke-linejoin:miter;stroke-opacity:1"
       d="m 1520.848,694.38454 222.8308,-7.22965"
       id="path1874-3-2-34" />
    <path
       style="fill:none;stroke:#000000;stroke-width:2.70209px;stroke-linecap:butt;stroke-linejoin:miter;stroke-opacity:1"
       d="m 1520.6174,717.52074 222.8308,-7.22966"
       id="path1874-0-8" />
    <path
       style="fill:none;stroke:#000000;stroke-width:2.70209px;stroke-linecap:butt;stroke-linejoin:miter;stroke-opacity:1"
       d="m 1523.8559,746.2315 222.8309,-7.22965"
       id="path1874-3-8-9" />
    <path
       style="fill:none;stroke:#000000;stroke-width:2.70209px;stroke-linecap:butt;stroke-linejoin:miter;stroke-opacity:1"
       d="m 1523.2251,772.52417 222.8309,-7.22965"
       id="path1874-3-2-3-9" />
    <path
       style="fill:none;stroke:#000000;stroke-width:2.68812px;stroke-linecap:butt;stroke-linejoin:miter;stroke-opacity:1"
       d="m 1524.7418,813.69214 220.5339,-7.22967"
       id="path1874-39-6" />
    <path
       style="fill:none;stroke:#000000;stroke-width:2.70209px;stroke-linecap:butt;stroke-linejoin:miter;stroke-opacity:1"
       d="m 1525.6837,842.40293 222.8305,-7.22968"
       id="path1874-3-87-5" />
    <path
       style="fill:none;stroke:#000000;stroke-width:2.6918px;stroke-linecap:butt;stroke-linejoin:miter;stroke-opacity:1"
       d="m 1526.7458,868.6956 221.1377,-7.22968"
       id="path1874-3-2-34-8" />
    <path
       style="fill:none;stroke:#000000;stroke-width:2.68597px;stroke-linecap:butt;stroke-linejoin:miter;stroke-opacity:1"
       d="m 1527.4751,891.83171 220.1778,-7.22967"
       id="path1874-0-8-0" />
    <path
       style="fill:none;stroke:#000000;stroke-width:2.70209px;stroke-linecap:butt;stroke-linejoin:miter;stroke-opacity:1"
       d="m 1528.0606,920.54259 222.831,-7.22967"
       id="path1874-3-8-9-0" />
    <path
       style="fill:none;stroke:#000000;stroke-width:2.68889px;stroke-linecap:butt;stroke-linejoin:miter;stroke-opacity:1"
       d="m 1529.6027,946.83516 220.658,-7.22969"
       id="path1874-3-2-3-9-2" />
    <path
       style="fill:none;stroke:#000000;stroke-width:2.68793px;stroke-linecap:butt;stroke-linejoin:miter;stroke-opacity:1"
       d="m 1525.5795,791.23741 220.4417,-7.23157"
       id="path1874-39-6-7" />
    <path
       style="opacity:1;fill:#273649;fill-opacity:1;stroke:none;stroke-width:3.81786;stroke-opacity:1"
       d="m 516.31291,737.22638 -4.93102,-131.57051 43.8921,-1.64237 43.89211,-1.64236 4.931,131.57056 4.93102,131.57052 -43.8921,1.6424 -43.8921,1.64231 z"
       id="path2128" />
    <path
       style="opacity:1;fill:#f2f2f2;fill-opacity:1;stroke:none;stroke-width:1.3498;stroke-opacity:1"
       d="m 741.6629,1098.99 c -255.85849,-11.7425 -468.92632,-21.3829 -473.48402,-21.4232 l -8.28676,-0.073 21.7903,-40.4393 21.7903,-40.43942 29.03264,-0.21363 c 15.96794,-0.11743 55.31453,-0.59022 87.43681,-1.05059 32.12229,-0.46055 58.40358,-0.38181 58.40286,0.17494 -0.002,1.35852 3.70539,1.29832 4.27477,-0.0702 0.2475,-0.59472 66.98888,-0.0306 148.31401,1.25234 475.90589,7.51096 586.56609,9.36196 587.03989,9.81956 1.0015,0.9669 3.8522,108.1495 2.886,108.5203 -1.7637,0.6775 -1.4058,3.9532 0.5171,4.7284 3.2811,1.323 -19.0011,0.3576 -479.7139,-20.7865 z"
       id="path2142" />
    <path
       style="opacity:1;fill:#f2f2f2;fill-opacity:1;stroke:none;stroke-width:1.3498;stroke-opacity:1"
       d="m 1225.9259,1108.3153 c -0.4072,-3.9651 -1.0733,-20.2637 -1.4802,-36.2189 -0.4068,-15.9551 -1.118,-37.2938 -1.5804,-47.4194 l -0.8405,-18.4103 14.0233,-0.8591 c 7.7131,-0.4725 184.472,-8.40215 392.7981,-17.62152 208.326,-9.21929 383.0661,-17.07618 388.3114,-17.4597 l 9.5368,-0.6974 5.5529,55.60812 c 3.0541,30.5845 5.4001,55.761 5.2133,55.9475 -0.4992,0.4985 -57.2048,2.9007 -436.9717,18.5104 -189.016,7.7692 -350.4507,14.5093 -358.7439,14.9781 l -15.0786,0.852 z"
       id="path2144" />
    <path
       style="opacity:1;fill:#f2f2f2;fill-opacity:1;stroke:none;stroke-width:1.3498;stroke-opacity:1"
       d="m 1221.8225,986.75501 c -0.4584,-8.34858 -4.4508,-125.98802 -8.872,-261.42103 -4.421,-135.43298 -8.4257,-254.74216 -8.8987,-265.13156 l -0.8605,-18.88977 104.4615,0.30622 c 130.6544,0.38303 666.1214,3.23873 666.4574,3.55428 0.8496,0.79903 47.7057,476.94606 47.1451,479.08757 -0.3811,1.45679 -0.189,3.28747 0.4236,4.0682 1.4371,1.82654 4.726,35.7218 3.5775,36.86931 -0.6223,0.62181 -776.8447,36.22337 -799.6956,36.67837 -2.7563,0.056 -2.9477,-0.7195 -3.7383,-15.12159 z m 421.2025,-24.7513 c 60.1582,-1.95297 109.6127,-3.76701 109.8993,-4.03121 0.2863,-0.26402 -1.3466,-48.92097 -3.629,-108.12643 -2.532,-65.68047 -3.6562,-107.82156 -2.8838,-108.09598 1.7202,-0.61112 1.6074,-3.93412 -0.1541,-4.52062 -1.287,-0.42873 -2.3953,-20.83596 -3.5769,-65.86629 -0.3902,-14.85938 -1.372,-39.384 -2.3501,-58.69325 -0.3759,-7.42098 -1.9727,-47.1907 -3.5487,-88.37717 -1.5758,-41.18645 -3.1344,-75.16101 -3.464,-75.49893 -0.6935,-0.71145 -221.9956,6.27939 -222.7536,7.03665 -0.2775,0.27734 3.8888,115.06734 9.2584,255.08891 8.4853,221.26292 10.0288,254.58803 11.7933,254.60999 1.1165,0.0135 51.2506,-1.5726 111.4089,-3.52567 z"
       id="path2146" />
    <path
       style="opacity:1;fill:#273649;fill-opacity:1;stroke:none;stroke-width:3.81786;stroke-opacity:1"
       d="m 712.97288,732.98545 -4.93103,-131.57055 43.89207,-1.64237 43.89208,-1.64233 4.93122,131.57052 4.93086,131.57053 -43.89209,1.64241 -43.89207,1.64231 z"
       id="path2128-5" />
    <path
       style="opacity:1;fill:#273649;fill-opacity:1;stroke:none;stroke-width:2.03185;stroke-opacity:1"
       d="m 664.2104,906.63089 -75.06742,1.52586 -0.58362,-21.80746 -0.58361,-21.80753 75.06745,-1.52586 75.06753,-1.52585 0.58346,21.80754 0.58365,21.80745 z"
       id="path2128-5-1" />
    <path
       style="opacity:1;fill:#273649;fill-opacity:1;stroke:none;stroke-width:2.03185;stroke-opacity:1"
       d="m 654.14644,602.70698 -75.06743,1.52584 -0.5836,-21.8075 -0.58361,-21.80746 75.06745,-1.52586 75.06745,-1.52585 0.58356,21.80751 0.58363,21.8075 z"
       id="path2128-5-1-3" />
    <rect
       style="opacity:1;fill:#000000;fill-opacity:1;stroke:none;stroke-width:5.84459;stroke-opacity:1"
       id="rect2210-6"
       width="46.06839"
       height="56.542507"
       x="632.63757"
       y="638.60553"
       transform="matrix(0.99919093,-0.04021801,0.03778135,0.99928603,0,0)" />
    <rect
       style="opacity:1;fill:#000000;fill-opacity:1;stroke:none;stroke-width:5.84459;stroke-opacity:1"
       id="rect2210-6-2"
       width="46.06839"
       height="56.542507"
       x="581.16968"
       y="638.38824"
       transform="matrix(0.99919093,-0.04021801,0.03778135,0.99928603,0,0)" />
    <rect
       style="opacity:1;fill:#000000;fill-opacity:1;stroke:none;stroke-width:5.84459;stroke-opacity:1"
       id="rect2210-6-6"
       width="46.06839"
       height="56.542507"
       x="632.56665"
       y="702.06848"
       transform="matrix(0.99919093,-0.04021801,0.03778135,0.99928603,0,0)" />
    <rect
       style="opacity:1;fill:#000000;fill-opacity:1;stroke:none;stroke-width:5.84459;stroke-opacity:1"
       id="rect2210-6-2-9"
       width="46.06839"
       height="56.542507"
       x="581.09882"
       y="701.85114"
       transform="matrix(0.99919093,-0.04021801,0.03778135,0.99928603,0,0)" />
    <rect
       style="opacity:1;fill:#000000;fill-opacity:1;stroke:none;stroke-width:5.84459;stroke-opacity:1"
       id="rect2210-6-6-8"
       width="46.06839"
       height="56.542507"
       x="632.89349"
       y="764.20129"
       transform="matrix(0.99919093,-0.04021801,0.03778135,0.99928603,0,0)" />
    <rect
       style="opacity:1;fill:#000000;fill-opacity:1;stroke:none;stroke-width:5.84459;stroke-opacity:1"
       id="rect2210-6-2-9-6"
       width="46.06839"
       height="56.542507"
       x="581.42365"
       y="763.98187"
       transform="matrix(0.99919093,-0.04021801,0.03778135,0.99928603,0,0)" />
    <rect
       style="opacity:1;fill:#000000;fill-opacity:1;stroke:none;stroke-width:5.84459;stroke-opacity:1"
       id="rect2210-6-6-1"
       width="46.06839"
       height="56.542507"
       x="631.89514"
       y="826.29492"
       transform="matrix(0.99919093,-0.04021801,0.03778135,0.99928603,0,0)" />
    <rect
       style="opacity:1;fill:#000000;fill-opacity:1;stroke:none;stroke-width:5.84459;stroke-opacity:1"
       id="rect2210-6-2-9-9"
       width="46.06839"
       height="56.542507"
       x="580.42731"
       y="826.07776"
       transform="matrix(0.99919093,-0.04021801,0.03778135,0.99928603,0,0)" />
    <path
       style="opacity:1;fill:#273649;fill-opacity:1;stroke:none;stroke-width:3.81786;stroke-opacity:1"
       d="m 842.88306,727.58021 -4.93094,-131.57051 43.89208,-1.6424 43.89216,-1.64234 4.93095,131.57055 4.93104,131.57046 -43.89225,1.6424 -43.892,1.64241 z"
       id="path2128-6" />
    <path
       style="opacity:1;fill:#273649;fill-opacity:1;stroke:none;stroke-width:3.81786;stroke-opacity:1"
       d="m 1039.5431,723.33926 -4.9309,-131.57051 43.8919,-1.64238 43.8922,-1.64236 4.9311,131.57052 4.9309,131.57056 -43.8921,1.64232 -43.8921,1.6424 z"
       id="path2128-5-8" />
    <path
       style="opacity:1;fill:#273649;fill-opacity:1;stroke:none;stroke-width:2.03185;stroke-opacity:1"
       d="m 990.78051,896.98473 -75.06723,1.52585 -0.58364,-21.80753 -0.58364,-21.80746 75.0675,-1.52585 75.0673,-1.52586 0.5837,21.80755 0.5836,21.80745 z"
       id="path2128-5-1-33" />
    <path
       style="opacity:1;fill:#273649;fill-opacity:1;stroke:none;stroke-width:2.03185;stroke-opacity:1"
       d="m 980.71675,593.06083 -75.06749,1.52583 -0.58347,-21.80751 -0.58382,-21.80747 75.06758,-1.52586 75.06735,-1.52585 0.5835,21.8075 0.5838,21.80748 z"
       id="path2128-5-1-3-0" />
    <rect
       style="opacity:1;fill:#000000;fill-opacity:1;stroke:none;stroke-width:5.84459;stroke-opacity:1"
       id="rect2210-6-4"
       width="46.06839"
       height="56.542507"
       x="959.34271"
       y="642.10156"
       transform="matrix(0.99919093,-0.04021801,0.03778135,0.99928603,0,0)" />
    <rect
       style="opacity:1;fill:#000000;fill-opacity:1;stroke:none;stroke-width:5.84459;stroke-opacity:1"
       id="rect2210-6-2-0"
       width="46.06839"
       height="56.542507"
       x="907.87488"
       y="641.88428"
       transform="matrix(0.99919093,-0.04021801,0.03778135,0.99928603,0,0)" />
    <rect
       style="opacity:1;fill:#000000;fill-opacity:1;stroke:none;stroke-width:5.84459;stroke-opacity:1"
       id="rect2210-6-6-7"
       width="46.06839"
       height="56.542507"
       x="959.27185"
       y="705.56458"
       transform="matrix(0.99919093,-0.04021801,0.03778135,0.99928603,0,0)" />
    <rect
       style="opacity:1;fill:#000000;fill-opacity:1;stroke:none;stroke-width:5.84459;stroke-opacity:1"
       id="rect2210-6-2-9-3"
       width="46.06839"
       height="56.542507"
       x="907.80396"
       y="705.34717"
       transform="matrix(0.99919093,-0.04021801,0.03778135,0.99928603,0,0)" />
    <rect
       style="opacity:1;fill:#000000;fill-opacity:1;stroke:none;stroke-width:5.84459;stroke-opacity:1"
       id="rect2210-6-6-8-8"
       width="46.06839"
       height="56.542507"
       x="959.59668"
       y="767.69525"
       transform="matrix(0.99919093,-0.04021801,0.03778135,0.99928603,0,0)" />
    <rect
       style="opacity:1;fill:#000000;fill-opacity:1;stroke:none;stroke-width:5.84459;stroke-opacity:1"
       id="rect2210-6-2-9-6-2"
       width="46.06839"
       height="56.542507"
       x="908.12878"
       y="767.47791"
       transform="matrix(0.99919093,-0.04021801,0.03778135,0.99928603,0,0)" />
    <rect
       style="opacity:1;fill:#000000;fill-opacity:1;stroke:none;stroke-width:5.84459;stroke-opacity:1"
       id="rect2210-6-6-1-1"
       width="46.06839"
       height="56.542507"
       x="958.60028"
       y="829.79095"
       transform="matrix(0.99919093,-0.04021801,0.03778135,0.99928603,0,0)" />
    <rect
       style="opacity:1;fill:#000000;fill-opacity:1;stroke:none;stroke-width:5.84459;stroke-opacity:1"
       id="rect2210-6-2-9-9-7"
       width="46.06839"
       height="56.542507"
       x="907.13257"
       y="829.57361"
       transform="matrix(0.99919093,-0.04021801,0.03778135,0.99928603,0,0)" />
    <path
       style="opacity:1;fill:#f2f2f2;fill-opacity:1;stroke:none;stroke-width:1.3498;stroke-opacity:1"
       d="m 952.58626,998.00214 c -124.03029,-2.04242 -276.55286,-4.41887 -338.93925,-5.28067 -62.38641,-0.8618 -117.16572,-1.88378 -121.73176,-2.27099 l -8.30188,-0.70405 -0.84322,-21.15832 c -0.4638,-11.63713 -1.13319,-28.74804 -1.48755,-38.0242 -0.35439,-9.2763 -1.28642,-33.56315 -2.07119,-53.97084 -0.78476,-20.40769 -1.30128,-39.23004 -1.1478,-41.82733 0.15345,-2.5974 -0.12476,-8.66913 -0.61842,-13.49275 -0.49363,-4.82362 -1.20434,-21.21724 -1.57938,-36.43024 -0.37504,-15.21306 -3.11596,-93.18949 -6.09096,-173.28095 -3.37476,-90.8544 -4.92677,-145.91866 -4.12668,-146.41277 1.73915,-1.07397 732.19533,-21.95356 733.19193,-20.95774 0.666,0.66547 18.8015,524.63519 19.0174,549.45101 l 0.073,8.4329 -19.9178,-0.1797 c -10.9547,-0.099 -121.3968,-1.8509 -245.42706,-3.89336 z m -266.83182,-91.23607 54.55272,-0.88973 -0.88767,-20.57248 -0.88774,-20.57257 19.92943,-0.83654 c 10.96105,-0.46008 26.15763,-1.18908 33.77035,-1.61999 l 13.84102,-0.78336 0.0135,-3.58064 c 0.027,-7.251 -9.67937,-259.9307 -9.99716,-260.24814 -0.1809,-0.18083 -14.75567,0.28283 -32.38842,1.03015 -17.63294,0.74732 -32.63079,1.0061 -33.32883,0.57509 -0.70415,-0.4347 -1.26926,-10.14611 -1.26926,-21.80956 v -21.02584 l -24.64384,0.85014 c -13.55428,0.46759 -47.58321,1.24891 -75.61996,1.73627 l -50.97593,0.88608 v 21.39314 21.39316 l -6.41417,0.0636 c -12.20824,0.12076 -59.93083,2.36313 -60.34199,2.83552 -0.35081,0.403 9.48836,262.83772 9.89732,263.9862 0.0791,0.22249 3.63798,0.0864 7.90847,-0.30195 4.27051,-0.38843 19.08255,-1.06865 32.91566,-1.51163 l 25.15106,-0.8055 0.99392,21.19015 0.99391,21.19014 21.11741,-0.84086 c 11.61461,-0.46251 45.66623,-1.24128 75.67029,-1.73061 z m 315.44446,-9.30119 c 32.6787,-0.42426 60.8268,-1.06631 62.5518,-1.42694 l 3.1362,-0.65565 -0.9551,-20.04922 -0.9552,-20.04922 12.6729,-0.79191 c 6.9701,-0.43551 22.2435,-1.16936 33.9409,-1.63088 14.5846,-0.57528 21.2672,-1.32434 21.2653,-2.38355 0,-0.84941 -2.1283,-57.68743 -4.7263,-126.30662 -2.5977,-68.61916 -4.7233,-127.42086 -4.7233,-130.67043 v -5.90831 l -20.5929,0.82299 c -11.3263,0.45266 -26.5177,1.16636 -33.759,1.58599 l -13.166,0.76297 V 568.87192 546.9797 l -34.0963,0.85899 c -18.7532,0.47243 -52.95473,1.2527 -76.00379,1.73391 l -41.90706,0.87494 0.54125,21.24468 0.54089,21.2447 -29.52754,0.87633 c -16.24012,0.48193 -31.55125,1.19541 -34.0247,1.58545 l -4.49723,0.70919 0.82438,14.42314 c 0.45324,7.93275 2.6367,64.51483 4.85194,125.73796 2.21558,61.22312 4.17207,114.00998 4.3482,117.30414 l 0.32021,5.98939 8.10197,-0.22652 c 4.45629,-0.12465 19.49582,-0.62362 33.42143,-1.10907 l 25.31919,-0.88263 0.0135,11.98552 c 0,6.59212 0.40365,16.15557 0.88515,21.25207 l 0.87568,9.26654 12.95606,-0.80612 c 7.12575,-0.44343 39.69273,-1.15335 72.37137,-1.57752 z"
       id="path2369" />
    <path
       style="opacity:1;fill:#f2f2f2;fill-opacity:1;stroke:none;stroke-width:0.674907;stroke-opacity:1"
       d="m 609.12958,861.74493 c 0.003,-1.11321 -2.14487,-59.35486 -4.77351,-129.42594 -2.62863,-70.07108 -4.59833,-127.58286 -4.3771,-127.80391 0.22129,-0.2211 12.62386,-0.64956 27.56132,-0.95214 14.9375,-0.30261 39.00842,-0.79326 53.49093,-1.09031 14.48261,-0.29707 26.41727,-0.48795 26.52158,-0.42423 0.43559,0.26649 9.83192,258.67809 9.42098,259.08885 -0.37547,0.37511 -27.29899,1.04534 -97.55303,2.42882 l -10.29699,0.20268 0.005,-2.02391 z m 39.39671,-4.15754 11.38154,-0.43973 -0.39806,-6.1343 c -0.21885,-3.3739 -0.74709,-16.15268 -1.17366,-28.39722 -0.42655,-12.24472 -0.85598,-22.35789 -0.9542,-22.47381 -0.34298,-0.40463 -45.57688,1.69307 -46.01823,2.13407 -0.46681,0.46638 0.88567,46.69029 1.55054,52.99278 l 0.38436,3.64382 11.92309,-0.44299 c 6.5577,-0.2438 17.04476,-0.64088 23.30462,-0.88262 z m 43.30613,-1.63259 c 10.39677,-0.40032 18.99471,-0.81936 19.10658,-0.93114 0.21339,-0.2132 -1.91382,-56.59294 -2.1444,-56.83288 -0.26586,-0.27666 -45.89594,1.8404 -46.19927,2.14343 -0.32748,0.32724 0.94485,39.1458 1.6524,50.41456 l 0.41091,6.54441 4.13525,-0.30519 c 2.27437,-0.16785 12.64169,-0.63278 23.03853,-1.03319 z m -45.33177,-60.42756 12.05668,-0.44829 -0.39799,-6.13321 c -0.21885,-3.37318 -0.74703,-16.15145 -1.17358,-28.39608 -0.42654,-12.24463 -0.85949,-22.36134 -0.96212,-22.4816 -0.36107,-0.42323 -45.52651,1.65846 -45.98802,2.11961 -0.48255,0.48217 0.84498,46.53797 1.52806,53.0138 l 0.38423,3.64246 11.24804,-0.43425 c 6.18644,-0.23895 16.67357,-0.63593 23.3047,-0.88244 z m 43.30797,-1.63862 c 10.76899,-0.40663 19.67087,-0.82827 19.78175,-0.9369 0.22149,-0.21708 -1.9221,-56.59456 -2.16123,-56.84239 -0.28485,-0.2952 -45.84575,1.82034 -46.16948,2.14378 -0.33804,0.33779 0.91319,38.88774 1.636,50.40526 l 0.40922,6.52039 3.46178,-0.27539 c 1.90396,-0.15139 12.27279,-0.60813 23.04196,-1.01475 z m -54.78598,-60.10207 20.83394,-0.80657 -0.4024,-6.79152 c -0.22127,-3.73538 -0.748,-16.50625 -1.17042,-28.37984 -0.4224,-11.87358 -0.85337,-21.68672 -0.95769,-21.80697 -0.36417,-0.41982 -45.52769,1.6565 -45.98566,2.1141 -0.47282,0.47243 0.84334,45.57992 1.53425,52.5813 l 0.38278,3.87919 2.46563,0.008 c 1.35608,0.005 11.84088,-0.35451 23.29957,-0.79814 z m 52.0852,-1.96435 c 10.76917,-0.40666 19.67636,-0.83374 19.79399,-0.94907 0.23499,-0.23056 -1.91112,-56.57368 -2.16438,-56.82682 -0.29429,-0.29403 -45.85041,1.81255 -46.17323,2.13516 -0.32354,0.32327 0.8536,36.33214 1.62588,49.73583 l 0.41455,7.195 3.46152,-0.27541 c 1.90386,-0.15135 12.27269,-0.60806 23.04167,-1.01469 z m -46.08085,-61.77429 11.98441,-0.44542 -0.0286,-6.136 c -0.047,-10.10157 -1.77028,-50.32296 -2.17334,-50.72569 -0.44087,-0.44049 -45.55629,1.34622 -46.03351,1.82307 -0.17913,0.17891 0.11396,11.24077 0.65127,24.58184 0.53729,13.34108 0.98139,26.04852 0.98688,28.23878 l 0.0108,3.98229 11.30924,-0.43674 c 6.22008,-0.24027 16.70221,-0.63716 23.2936,-0.88213 z m 43.71775,-1.63977 c 10.95476,-0.41543 19.94159,-0.80095 19.97075,-0.85674 0.24794,-0.47524 -2.16663,-56.41298 -2.44725,-56.6917 -0.34605,-0.34355 -45.95831,1.40758 -46.22802,1.77477 -0.14076,0.19136 2.12215,56.80045 2.27476,56.90909 0.0537,0.0383 1.54103,-0.0316 3.30492,-0.15515 1.76391,-0.12346 12.1701,-0.56475 23.12484,-0.98018 z"
       id="path2371" />
    <path
       style="opacity:1;fill:#f2f2f2;fill-opacity:1;stroke:none;stroke-width:0.674907;stroke-opacity:1"
       d="m 935.61995,846.39693 c -0.60282,-10.7915 -9.1698,-242.11773 -9.1654,-247.48686 v -4.44962 l 24.47529,-0.46761 c 13.46139,-0.2573 37.66811,-0.75791 53.79256,-1.11267 16.1247,-0.35476 29.3825,-0.57068 29.4616,-0.47982 0.2725,0.31201 9.8355,259.02863 9.584,259.28 -0.2453,0.24516 -91.27183,2.29536 -102.22406,2.30265 h -5.50361 z m 33.03705,1.83887 c 6.68412,-0.20592 13.36843,-0.5211 14.85386,-0.70046 l 2.7005,-0.32617 -1.01284,-27.92581 c -0.55718,-15.35916 -1.23156,-28.14423 -1.49876,-28.41108 -0.26702,-0.26703 -10.85593,-0.0891 -23.53074,0.39483 l -23.04528,0.88019 0.38681,4.77755 c 0.21259,2.62763 0.7514,15.5189 1.19708,28.64724 l 0.8108,23.86971 8.49265,-0.4158 c 4.67085,-0.22869 13.96171,-0.58429 20.64592,-0.7902 z m 48.5094,-1.78487 20.8271,-0.8064 -0.3836,-4.09318 c -0.211,-2.25134 -0.7477,-15.09825 -1.1928,-28.54888 l -0.8095,-24.45542 -3.0925,0.0333 c -6.9309,0.0747 -43.28004,1.78577 -43.47417,2.04677 -0.18919,0.25434 1.93029,56.04538 2.14413,56.44453 0.16469,0.30771 4.96011,0.19323 25.98134,-0.62063 z m -50.8726,-60.27789 c 6.49847,-0.20332 13.33468,-0.52344 15.19145,-0.71136 l 3.37577,-0.34172 -1.01293,-27.91446 c -0.5572,-15.3529 -1.23597,-28.1372 -1.50857,-28.40958 -0.27252,-0.27235 -10.86178,-0.099 -23.53173,0.38547 l -23.03628,0.88066 0.38771,4.78697 c 0.21321,2.63282 0.7523,15.52651 1.19807,28.65264 l 0.81053,23.86558 8.15515,-0.41228 c 4.48537,-0.2268 13.4722,-0.5787 19.97083,-0.78192 z m 48.8466,-1.78902 21.5019,-0.81413 -0.3832,-4.08914 c -0.2107,-2.249 -0.7473,-15.09411 -1.1923,-28.54464 l -0.8096,-24.4555 -3.43,0.0375 c -7.448,0.0814 -42.91045,1.74853 -43.12132,2.02721 -0.19908,0.26325 1.90384,56.0401 2.12884,56.45995 0.15551,0.29042 3.20476,0.21563 25.30568,-0.62119 z m -54.08326,-60.18405 c 11.4167,-0.47275 20.84877,-0.98788 20.96046,-1.14473 0.42587,-0.59874 -1.90753,-55.85757 -2.37858,-56.32686 -0.27261,-0.27175 -10.85684,-0.0982 -23.52057,0.38615 l -23.0245,0.88023 0.3825,4.45007 c 0.2106,2.44755 0.74554,15.30327 1.18916,28.56829 l 0.80638,24.11819 2.41368,-0.0359 c 1.32757,-0.0189 11.75475,-0.42275 23.17147,-0.89545 z m 51.38496,-1.88249 21.504,-0.81419 -0.3892,-4.76368 c -0.2143,-2.62003 -0.7423,-15.38916 -1.1733,-28.37589 -0.431,-12.98672 -0.8711,-23.71615 -0.9781,-23.84318 -0.2837,-0.33728 -46.11942,1.5902 -46.38167,1.95044 -0.19233,0.26406 1.89915,56.01909 2.11811,56.46779 0.14185,0.29055 3.19983,0.21542 25.30016,-0.62129 z m -53.74294,-61.53823 c 11.23384,-0.4756 20.60227,-1.04175 20.81881,-1.25807 0.44585,-0.44553 -1.63231,-55.93516 -2.11273,-56.4153 -0.33992,-0.33965 -45.72796,1.28247 -46.13125,1.64868 -0.25694,0.23351 0.94185,35.08847 1.68641,49.03411 l 0.42317,7.92694 2.44509,-0.0359 c 1.34494,-0.0189 11.63658,-0.42497 22.8705,-0.90059 z m 59.75214,-2.19549 12.6595,-0.44943 -0.014,-4.11241 c -0.019,-7.46632 -1.9532,-52.51133 -2.2693,-52.82723 -0.4432,-0.44288 -45.50219,1.44675 -45.98414,1.9284 -0.2205,0.22029 0.0657,12.12144 0.63765,26.44723 0.57131,14.32582 1.03859,27.01023 1.03859,28.1876 v 2.14072 l 10.63399,-0.43272 c 5.84881,-0.23811 16.33091,-0.63495 23.29371,-0.88216 z"
       id="path2373" />
  </g>
</svg>
